<svg xmlns="http://www.w3.org/2000/svg" width="242" height="200" fill="none">
  <path fill="#E6E7E8" d="m31.1 83.9 85-53.7L201.3 84v78.3h-170V83.9Z" />
  <path fill="#231F20" fill-rule="evenodd"
    d="M30.7 162.2c0 .2.2.4.4.4h170.1c.2 0 .4-.2.4-.4V84c0-.1 0-.2-.2-.3l-85-53.7h-.4L31 83.5c-.2.1-.3.2-.3.4v78.3Zm170.2-.4H31.5V84l84.7-53.4 84.7 53.4v77.7Z"
    clip-rule="evenodd" />
  <path fill="#fff"
    d="M136.9 62.8a27.8 27.8 0 0 0 3.3-15.8c-.2-6-1.8-11.8-4.6-17a15.4 15.4 0 0 0-5-5.7c-2.5-1.5-4.2-.5-6.7-.9-2.1-.4-4.3-1.9-6.7-2.2-5.4-1-11 .2-15.5 3.2-8 5.4-11.7 15.7-20 20.8-8 4.9-18.4 3.4-27.5 6-3.9 1.2-7.4 3.1-10.6 5.6-2.1 1.7-3.9 3.8-5.1 6.2a19.5 19.5 0 0 0 0 14.4C40 82.3 42.7 87 46.9 90A44.6 44.6 0 0 0 76 94.5c4.2-.9 8.1-2.8 11.4-5.6 1.4-1.2 2.2-3 3.5-4.2 1.8-1.7 4.6-2.7 6.7-4 3.3-2 6.6-4.3 10.4-5.3 9.5-2.4 23-3.1 28.8-12.6Z" />
  <path fill="#231F20" fill-rule="evenodd"
    d="M58.7 94.7c3.2.6 6.5.9 9.8 1 2.6 0 5.1-.3 7.7-.8 4.3-.9 8.3-2.8 11.6-5.7.7-.7 1.3-1.4 1.9-2.3l1.5-2c1.3-1 2.8-2 4.3-2.6A47 47 0 0 0 98 81l.8-.5c3-2 6-3.8 9.5-4.7l5.7-1.3h.3c8.6-1.8 18.3-3.8 23-11.5 2.5-4.2 3.6-9.5 3.3-16-.1-6-1.7-11.9-4.6-17.2-1.2-2.3-3-4.3-5-5.7-1.4-.8-3-1.2-4.6-1H124c-1-.2-2-.6-3-1-1.2-.6-2.4-1-3.7-1.3a22 22 0 0 0-15.7 3.3c-4 2.7-6.8 6.5-9.7 10.3-3 4-6 8-10.3 10.5-4.8 3-10.3 3.5-16.2 4.2-3.8.3-7.6 1-11.2 1.9a31 31 0 0 0-10.7 5.6c-2.2 1.7-4 3.8-5.2 6.3-2.4 5-1.4 10.8 0 14.7 1.7 5.5 4.7 10 8.4 12.6 3.8 2.7 8.4 3.8 12 4.5Zm43.2-70a21 21 0 0 1 15.3-3.1c1.2.2 2.4.6 3.4 1.1 1 .5 2.2.9 3.3 1.1.8.2 1.7.2 2.5.1a6 6 0 0 1 4.1.8c2 1.4 3.7 3.3 4.8 5.5 2.8 5.2 4.4 11 4.6 16.9.3 6.3-.8 11.5-3.3 15.6-4.5 7.4-14 9.4-22.5 11l-6 1.4c-3.6 1-6.7 2.8-9.7 4.7l-.9.6-2.3 1.3c-1.6.7-3.1 1.6-4.4 2.8-.7.6-1.2 1.3-1.7 2-.5.8-1.1 1.5-1.8 2.2A24.7 24.7 0 0 1 76 94.2a44 44 0 0 1-29-4.6 23.9 23.9 0 0 1-8.2-12.2c-1.2-3.8-2.2-9.4 0-14.2 1.3-2.3 3-4.4 5.1-6 3-2.5 6.6-4.4 10.4-5.5 3.6-1 7.3-1.6 11-1.9h.1c5.7-.6 11.6-1.3 16.5-4.3 4.3-2.6 7.5-6.7 10.5-10.7 2.8-3.7 5.7-7.5 9.5-10Z"
    clip-rule="evenodd" />
  <path fill="#fff" d="M169 55 165 70.8l10 1.7 5.6-20.8s-8.8-6.7-10.2-6.8c-1.4 0-1.3 10.3-1.3 10.3Z" />
  <path fill="#231F20" fill-rule="evenodd"
    d="M174.8 72.8c.2 0 .4 0 .4-.2l5.7-20.8-.1-.5c-1.5-1.1-9-6.8-10.5-6.9l-.5.2c-1.2 1.2-1.2 8.8-1.2 10.5l-4 15.5a.4.4 0 0 0 .2.5l10 1.7Zm-.2-.8-9.2-1.6 4-15.2c0-4.5.4-9.6 1-10 .7 0 5.4 3.3 9.7 6.6L174.6 72Z"
    clip-rule="evenodd" />
  <path fill="#fff"
    d="M158.2 44.9s1.5 3.1 3.5 3.7c2 .5 6.4-1.7 7-1.4.5.3 12.1 9 13.2 9.2 1.2.3 3.3-2.5 4.2-5.7 0 0-11.4-7.7-12.1-8.6-.8-.8-1.6-5.7-2.7-7.5l-13 10.3Z" />
  <path fill="#231F20" fill-rule="evenodd"
    d="M181.8 56.9h.3c1.5 0 3.5-3.2 4.3-6l-.1-.5c-4.6-3-11.5-7.9-12-8.5-.5-1-.9-2-1.1-3-.4-1.5-1-3-1.6-4.4l-.3-.2-.3.1-13 10.2c-.1.1-.2.3 0 .5 0 .2 1.5 3.3 3.6 3.9 1.4.3 3.6-.4 5.3-1l.6-.2 1-.3 2.7 2c6.2 4.5 10 7.2 10.6 7.4Zm-13-10-.3-.1c-.6 0-1.3.2-1.9.4-1.5.5-3.7 1.3-4.8 1-1.5-.4-2.7-2.5-3-3.2l12.3-9.8c.5 1.3 1 2.5 1.3 3.8.5 1.8.9 3 1.3 3.4.7.8 10 7.1 11.9 8.4-1 3.3-2.9 5.5-3.6 5.3-.6-.2-5.4-3.7-8.8-6.1l-1.5-1.1-.6-.5-2.3-1.6Z"
    clip-rule="evenodd" />
  <path fill="#231F20" d="M170.6 37.6c0 .8.1 1.6.5 2.4.6 1.1 3.5 2.6 3.5 2.6l2-3.9-4-2.8-2 1.7Z" />
  <path fill="#231F20" fill-rule="evenodd"
    d="M174.4 43h.2c.2 0 .3-.1.3-.2l2-4c0-.1 0-.3-.2-.4l-3.8-2.8a.4.4 0 0 0-.5 0l-2 1.7-.1.2c-.2 1 0 1.9.4 2.7.7 1.2 3.4 2.6 3.7 2.8Zm-3-3.2c-.3-.6-.4-1.3-.4-2l1.7-1.4 3.3 2.4-1.6 3.3c-1-.5-2.6-1.5-3-2.3Z"
    clip-rule="evenodd" />
  <path fill="#fff"
    d="M183 48.6s1-3.3-.8-3.5a1.7 1.7 0 0 0-2.5-1.3s-.6-2.4-2.5-2c-2 .5-3.4 5.1-3.2 6.2.3 1.2 1.8.5 2.5-.6 0 0-1 1.8-.3 2.3 1 .7 2-.6 2.8-1.4 0 0-1.2 2 .5 2.2 1.4.2 2.6-2.5 2.6-2.5l.9.6Z" />
  <path fill="#231F20" fill-rule="evenodd"
    d="M179.4 51h.2c1.2 0 2.2-1.6 2.6-2.4l.5.3c.1 0 .2.1.4 0 0 0 .2 0 .2-.2.1-.2.7-2.2 0-3.3-.2-.3-.5-.5-.8-.6-.2-.6-.5-1.1-1-1.4a2 2 0 0 0-1.6-.1c-.2-.7-.7-1.2-1.2-1.6a2 2 0 0 0-1.6-.2c-2.2.5-3.8 5.3-3.5 6.6 0 .5.4.8.8 1l1.2-.3c-.1.4 0 .9.3 1.2.8.6 1.6.2 2.2-.4 0 .8.6 1.3 1.3 1.3Zm-.2-3-.3-.1h-.3l-.1.3c-.9 1-1.5 1.6-2.1 1.2-.2-.2 0-1 .4-1.8.1-.2 0-.4-.1-.5a.4.4 0 0 0-.5 0c-.4.7-1 1-1.6 1.1 0 0-.2 0-.2-.2-.2-1 1.2-5.3 2.9-5.8l1 .1c.5.4.8 1 1 1.6 0 0 0 .2.2.2h.3c.4-.2.9-.2 1.3 0s.6.6.7 1c0 .2.2.4.3.4.3 0 .5.1.6.3.2.7.3 1.4 0 2.1l-.4-.3h-.3c-.1 0-.2 0-.3.2-.3.8-1.4 2.4-2.2 2.4-.4 0-.5-.3-.5-.3-.2-.4 0-1.1.3-1.5l-.1-.5Z"
    clip-rule="evenodd" />
  <path fill="#fff" d="M174.6 38.8s-1.1-1.8-2.2-.2c-1.2 1.7-2.5 4.7-.7 5 2 .4 3.4-3.1 2.9-4.8Z" />
  <path fill="#231F20" fill-rule="evenodd"
    d="M171.7 44h.3c.7 0 1.3-.3 1.7-.8 1-1.2 1.5-2.9 1.2-4.5 0-.2-.6-1.1-1.5-1.1-.6 0-1 .3-1.4.8-.8 1.2-2 3.5-1.4 4.8.2.5.6.8 1 .9Zm1-5.2c.1-.2.4-.5.6-.5.4 0 .8.5.9.7.2 1.3-.2 2.6-1 3.6-.4.5-.9.7-1.4.7a.6.6 0 0 1-.5-.4c-.4-.8.4-2.7 1.4-4Z"
    clip-rule="evenodd" />
  <path fill="#fff"
    d="M169 56.1s-1.2-5.9-1.3-7c-.2-1.8.2-4.6 1.8-5 1.5-.5 5.2-.9 4.6.7-.6 1.5-3.7 1.7-3.7 1.7s2.1 2.2 1.8 4.4" />
  <path fill="#231F20"
    d="M169 56.5a.4.4 0 0 1-.4-.3l-1.3-7c-.2-1.9.2-5 2-5.6 1-.2 4-.8 5 .2.3.3.3.7.1 1-.4 1.3-2.2 1.8-3.3 2 .7.8 1.8 2.4 1.5 4.1a.4.4 0 0 1-.8 0c.3-2-1.7-4.1-1.7-4.2a.4.4 0 0 1-.1-.4l.3-.2c.8 0 3-.5 3.4-1.5v-.3c-.4-.5-2.6-.3-4.1.1-1.3.3-1.7 3-1.6 4.6l1.4 7v.3l-.3.2Z" />
  <path fill="#fff"
    d="M192.3 33.6s-13.1-1.3-18.5 1.8c-1.4.8-2.6 1.7-3.9 2.7-2.9 2.3-5.6 4.8-7.7 6.3-4.3 2.8-8.3 3.4-11.1-1.1-2.4-3.9-1-5.7 2.2-9.1 1.6-1.7 5-4.5 7.8-7.6 1.7-1.7 3.1-3.7 4.2-5.8 2.5-5.1 1.8-13 1.8-13l25.2 25.8Z" />
  <path fill="#231F20" fill-rule="evenodd"
    d="m155 46.8 1.3.2c1.8 0 3.8-.8 6.1-2.3 1.5-1 3-2.2 4.3-3.4a110.8 110.8 0 0 1 7.3-5.5c5-2.9 16.8-2 18.1-1.8h.2c.1 0 .3 0 .3-.2v-.5L167.4 7.6a.4.4 0 0 0-.5-.1l-.2.4s.7 7.8-1.7 12.7c-1.1 2.1-2.5 4-4.2 5.8a114.6 114.6 0 0 1-7.8 7.5c-3.2 3.5-4.8 5.5-2.2 9.6a6.7 6.7 0 0 0 4.2 3.3ZM165.7 21c2-4.1 2-9.8 1.8-12.1l23.8 24.3c-3.3-.3-13.1-.7-17.7 2a34.8 34.8 0 0 0-7 5.1l-.4.4a50.7 50.7 0 0 1-4.3 3.4c-2.6 1.7-4.8 2.4-6.7 2a6 6 0 0 1-3.8-3c-2.2-3.7-1-5.3 2.2-8.6l2.7-2.6v-.1c1.6-1.5 3.4-3.1 5-5 1.8-1.7 3.3-3.7 4.4-5.8Z"
    clip-rule="evenodd" />
  <path fill="#231F20"
    d="M170.6 37.6c-2.9 2.2-6.4 5.3-8.4 6.8-4.7 3.5-7.7 3.8-10.7-.5-3.2-4.4-1.4-6.3 1.8-9.7 1.6-1.7 5-4.5 7.8-7.6 0 0 .2 3.2 3.4 7.2 1.6 1.9 3.7 3.2 6.1 3.8Z" />
  <path fill="#231F20" fill-rule="evenodd"
    d="M155.5 47.4h.7c1.7 0 3.7-.8 6.2-2.7 1-.8 2.4-2 4-3.1l.3-.3.5-.4a232.2 232.2 0 0 1 3.8-3.4c0-.2-.1-.3-.3-.3-2.3-.6-4.4-1.8-6-3.7-3-3.8-3.2-6.9-3.2-6.9 0-.2-.1-.3-.3-.3-.1-.1-.3 0-.4 0a114.7 114.7 0 0 1-5.3 5.2c-1 1-1.9 1.7-2.5 2.5-3.2 3.4-5.2 5.5-1.8 10.2 1.4 2 2.7 3 4.3 3.2Zm.8-15.6c1.4-1.3 3-2.7 4.5-4.3.6 2.4 1.8 4.6 3.4 6.5 1.4 1.8 3.4 3 5.6 3.8a316.3 316.3 0 0 0-7.9 6.3c-2.7 2-4.6 2.8-6.3 2.5-1.3-.2-2.5-1.1-3.8-2.9-3-4.2-1.4-5.8 1.8-9.2l2.7-2.6Z"
    clip-rule="evenodd" />
  <path fill="#7C5DFA"
    d="M196 32.5c-3 2.6-9.5.4-15.9-5a45.4 45.4 0 0 1-8.4-9.3c-4.7-7-6.2-13.6-3.2-16.3 3.6-3.3 12.7 1 20.3 9.4 7.6 8.4 10.8 18 7.1 21.2Z" />
  <path fill="#231F20" fill-rule="evenodd"
    d="M168 1.3c1-.9 2.4-1.3 3.8-1.3 4.8 0 11.7 4.2 17.6 10.7 3.5 3.7 6.2 8 8 12.8 1.4 4.4 1 7.7-1 9.6-1 .9-2.4 1.4-3.8 1.3-3.6 0-8.3-2.3-13-6.2-3.3-2.8-6.2-6-8.6-9.6-5-7.4-6.3-14.4-3-17.3Zm20.8 10C183 4.8 176.2.8 171.8.8c-1.2 0-2.4.3-3.3 1.1-3 2.7-1.5 9.4 3.2 16.3a45.5 45.5 0 0 0 8.4 9.4c4.6 3.8 9.1 6 12.5 6 1.2 0 2.4-.3 3.3-1 3.7-3.4.5-12.9-7-21.3Z"
    clip-rule="evenodd" />
  <path fill="#fff" d="m185.4 21-5.3 6.6a45.4 45.4 0 0 1-8.4-9.4l7.6-4.6 6 7.4Z" />
  <ellipse cx="182.3" cy="17.3" fill="#231F20" rx="2.2" ry="4.8" transform="rotate(-39.4 182.3 17.3)" />
  <path fill="#231F20" fill-rule="evenodd"
    d="M180.3 19c1.3 1.7 3 2.7 4.3 2.7.3 0 .7-.1 1-.3 1.1-1 .6-3.5-1.3-5.8-.7-1-1.7-1.7-2.8-2.3-1-.5-2-.5-2.5 0-.6.5-.8 1.4-.5 2.5.4 1.2 1 2.3 1.8 3.2Zm-.8-5.1.6-.2 1 .3a8 8 0 0 1 2.6 2.1c1.7 2 2 4 1.4 4.6-.7.6-2.6-.2-4.2-2.2a7.9 7.9 0 0 1-1.6-2.9c-.2-.8-.1-1.4.2-1.7Z"
    clip-rule="evenodd" />
  <path fill="#231F20"
    d="M179 48.6h-.3a.4.4 0 0 1-.1-.5c.5-.8 1-1.6 1.8-2.2a.4.4 0 1 1 .5.6c-.6.6-1.2 1.2-1.6 2 0 0-.2.2-.4.1ZM176.5 47.8a.4.4 0 0 1-.4-.5 5 5 0 0 1 2-2.8.4.4 0 0 1 .4.7c-.8.5-1.3 1.4-1.6 2.3 0 .2-.2.3-.4.3ZM182 48.4l-.1-.1-.2-.3v-.3l.6-.7c.1-.2.4-.3.5-.1.2.1.3.3.1.5l-.5.8-.3.2Z" />
  <path fill="#fff"
    d="m157.2 46.7-.2-.1a14.3 14.3 0 0 1-6-9V37a.4.4 0 0 1 .6.2l.1.3c.4 3 2.5 6 5.8 8.5a.4.4 0 0 1-.3.7ZM155.3 34.1l-.3-.1a.4.4 0 0 1 0-.6l4.2-3.9a.4.4 0 0 1 .6 0 .4.4 0 0 1 0 .6l-4.3 3.9-.2.1ZM155.9 35h-.3a.4.4 0 0 1 0-.6l4.2-4h.6v.6l-4.3 4h-.2ZM156.5 36.1h-.3a.4.4 0 0 1 0-.6l4.3-4a.4.4 0 0 1 .5 0 .4.4 0 0 1 0 .6l-4.2 4h-.3Z" />
  <path fill="#7C5DFA"
    d="m86.4 96.8-2 43.6s27 .4 42.5-6.1c1.3-4.2 2.8-8.2 4.6-12.2 2.3-4.6 12-11.4 9-29 0 0 23 14.6 29.5 8 6.5-6.8 9.8-38 9.8-38l-13.5-4.3-6.1 19.2s-38.9-18.8-48-21.1c-3.3-1-13.8 4.6-25.8 12.3" />
  <path fill="#231F20" d="M111.4 70s6.3 19.3 7.3 27.5 1.3 21.8 1.3 21.8 9.8-30.2 8.6-49l-17.2-.4Z" />
  <path fill="#231F20" fill-rule="evenodd"
    d="m120 119.7.3-.3c0-.3 9.9-30.5 8.7-49 0-.2-.2-.4-.4-.4l-17.2-.4a.4.4 0 0 0-.3.4c.1.5 6.2 19.5 7.3 27.6 1 8 1.2 21.6 1.2 21.7 0 .2.1.3.3.4Zm-1-22.2a233 233 0 0 0-7.1-27.2l16.4.4c.9 15.6-5.9 39.4-8 46.5-.1-4.2-.4-13.5-1.2-19.7Z"
    clip-rule="evenodd" />
  <path fill="#231F20" d="M80 163.6h74.4L127 134.3l-42.5 6.1S79.4 152 79.9 160v3.6Z" />
  <path fill="#231F20" fill-rule="evenodd"
    d="M80 164h74.4a.4.4 0 0 0 .3-.7L127.3 134l-.4-.1-42.5 6.2a53.4 53.4 0 0 0-4.7 23.8h.2Zm73.5-.8H80.3V160a52.5 52.5 0 0 1 4.4-19.2l42.1-6 26.7 28.4Z"
    clip-rule="evenodd" />
  <path fill="#fff"
    d="m126.5 59.5 2.1 10.9s0 6.3-7 5.7a14 14 0 0 1-10.2-6.2l-2.8-19c.2-3.4 0-6.9-.9-10.2 8-1.7 13.3-9 13.3-9a78.4 78.4 0 0 0 8.1 7.6c1.5 1.8 2 4.5 2.4 6.8.5 2.8.7 5.5.7 8.3-.1 5.4-5.7 5.1-5.7 5.1Z" />
  <path fill="#231F20" fill-rule="evenodd"
    d="M121.7 76.5h.9c1.6 0 3.2-.5 4.4-1.5 1.2-1.2 1.9-2.9 1.9-4.6l-2-10.5c1.4 0 2.9-.6 4-1.6 1-1 1.6-2.4 1.6-3.8 0-2.8-.2-5.7-.7-8.4-.4-2.3-1-5-2.5-7-1-1.1-2-2-3.1-2.9l-4.4-4-.6-.7h-.6a24 24 0 0 1-13.2 9v.3a32 32 0 0 1 .8 10.3l2.9 19c2.4 3.7 6.3 6 10.6 6.4Zm0-.8c-4-.4-7.7-2.5-10-5.9L109 51v-.8c.2-3-.1-6.2-.8-9.2 7-1.5 11.7-7.2 12.8-8.6.9.9 3.5 3.5 4.7 4.4 1.2.8 2.2 1.7 3 2.8 1.5 1.7 2 4.2 2.3 6.4v.2c.6 2.8.8 5.5.8 8.3 0 1.3-.4 2.5-1.3 3.4a6.2 6.2 0 0 1-4 1.3c-.1 0-.2 0-.3.2v.3l2 10.8a6 6 0 0 1-1.7 4c-1 1-2.7 1.5-4.8 1.3Z"
    clip-rule="evenodd" />
  <path fill="#231F20" d="M127.4 64.9s-4.4 1-7.8-1.4c-3.4-2.4-3.5-5.5-3.5-5.5s5.4 2.3 10.4 1.5l1 5.4Z" />
  <path fill="#231F20" fill-rule="evenodd"
    d="M119.4 63.8a9.8 9.8 0 0 0 5.7 1.6c.8 0 1.6 0 2.4-.2.2 0 .3-.2.3-.4l-1-5.4c0-.1-.2-.3-.3-.2-4.5.7-9.3-1.1-10.1-1.4h-.1c-.1-.1-.3-.1-.4 0l-.1.3c0 .1.1 3.2 3.6 5.7Zm.5-.6a8 8 0 0 1-3.3-4.6c1.4.5 5.6 1.9 9.6 1.3l.9 4.7c-1 .2-4.5.5-7.2-1.4Z"
    clip-rule="evenodd" />
  <path fill="#fff" d="M120.7 41s4.5 4.5 3.8 5.6c-.7 1-3.1 1-3.1 1" />
  <path fill="#231F20"
    d="M121.8 47.9h-.4a.3.3 0 0 1-.4-.4c0-.2.2-.3.4-.3.6 0 2.4 0 2.8-.8.3-.4-1.5-2.8-3.8-5.2a.3.3 0 1 1 .5-.5c1.4 1.5 4.6 5 3.9 6.1-.6 1-2.2 1-3 1Z" />
  <ellipse cx="126.6" cy="42.3" fill="#231F20" rx=".6" ry="1.1" transform="rotate(-13 126.6 42.3)" />
  <ellipse cx="116.6" cy="43.4" fill="#231F20" rx=".6" ry="1.1" transform="rotate(-13 116.6 43.4)" />
  <path fill="#fff"
    d="M111.2 44.7c-1.1-1.8-3.7-2-5.5-1.3-1.2.4-2 1.6-2 2.8 0 .8 0 1.6.3 2.3.5 1.4 1.2 2.6 2.1 3.7.5.6 1 1 1.7 1.3.8.3 1.8 0 2.4-.6" />
  <path fill="#231F20"
    d="m108.5 54-.8-.1c-.7-.4-1.4-.9-1.8-1.5-1-1.1-1.7-2.4-2.2-3.8-.3-.7-.5-1.6-.4-2.4 0-1.4 1-2.6 2.3-3.1 2-.8 4.7-.5 5.9 1.4a.4.4 0 0 1-.7.4c-1-1.6-3.3-1.8-5-1.2-1 .4-1.8 1.4-1.8 2.6 0 .7 0 1.4.4 2 .4 1.4 1.1 2.6 2 3.7.4.5 1 .9 1.5 1.2.7.2 1.5 0 2-.6a.4.4 0 0 1 .7.2c0 .1 0 .3-.2.4-.5.5-1.1.8-1.9.8Z" />
  <path fill="#fff" d="m125 49-5.2.4s1.1 8.2 3.5 8c2.3-.3 2.3-6.1 1.8-8.5Z" />
  <path fill="#231F20" fill-rule="evenodd"
    d="M119.5 49.5c.1 1.4 1.2 8.2 3.7 8.2h.1c.6 0 1-.4 1.4-.9 1.3-1.8 1.2-6.1.7-8l-.4-.2-5.2.5-.3.1v.3Zm3.7 7.5c-1.4 0-2.6-4.3-3-7.2l4.6-.5c.4 2 .4 5.7-.7 7.1-.2.3-.5.6-.9.6Z"
    clip-rule="evenodd" />
  <path fill="#231F20"
    d="M138.3 112c-.2 0-.3 0-.4-.2v-.3c.1-.1 5.9-9.8.4-30.1 0-.2 0-.4.2-.4a.4.4 0 0 1 .5.2c5.6 20.6-.2 30.3-.4 30.7l-.3.1Z" />
  <path fill="#fff" d="m31.1 83.9 85 61.3 85.1-61.3v100.5h-170V84Z" />
  <path fill="#231F20" fill-rule="evenodd"
    d="M30.7 184.4c0 .2.2.4.4.4h170.1c.2 0 .4-.2.4-.4V84c0-.2 0-.3-.2-.4h-.4l-84.8 61.1-84.8-61c-.2-.1-.3-.1-.4 0-.2 0-.3.1-.3.3v100.5ZM201 184H31.5V84.6l84.4 60.9h.5l84.5-60.9V184Z"
    clip-rule="evenodd" />
  <path fill="#231F20"
    d="M31.1 184.8c-.1 0-.2 0-.3-.2-.1-.2 0-.4.1-.5l77.8-44.5c.2-.1.5 0 .6.2v.3l-.2.2-77.8 44.5h-.2ZM201.2 184.8h-.2l-77.8-44.5a.4.4 0 0 1-.1-.5c0-.2.3-.3.5-.2l77.8 44.5c.2 0 .3.3.1.5l-.3.2Z" />
  <path fill="#fff"
    d="M71.7 138.3s3.4 9 4.2 9.4c.8.5 10.4 4.5 9.7 6.3-.6 1.8-5-.4-5-.4s6.3 7.2 4.6 8.4c-1.6 1.3-7.1 3.9-9.3 2.8a77.9 77.9 0 0 1-15.6-20.6" />
  <path fill="#231F20"
    d="M77.2 165.5c-.5 0-1 0-1.5-.3A77.9 77.9 0 0 1 60 144a.4.4 0 0 1 .6 0c2.4 6.1 13.5 19.6 15.4 20.5 2 1 7.3-1.4 9-2.7l.1-.3c.2-1.6-3.4-6-4.7-7.6a.4.4 0 0 1 .5-.6c.7.4 3 1.4 4 1 .2 0 .3-.2.4-.4.2-.5-1-1.8-8-5-1-.4-1.4-.7-1.5-.8a54.3 54.3 0 0 1-4.4-10l.2-.1c.2-.1.4 0 .5.2 1.6 4.3 3.6 8.9 4 9.3l1.5.6c5.6 2.7 9 4.6 8.5 6-.2.5-.5.8-1 1-1 .1-2 0-3-.4 1.5 1.9 4 5.3 3.8 6.9 0 .3-.2.6-.4.8-1.3 1-5.5 3-8.3 3Z" />
  <path fill="#7C5DFA"
    d="M86.4 69.3c-20.2 13-44.9 32-47 36.5C36.2 113 61 148.5 61 148.5l13.5-8.5-12.3-26.7 24.2-16.5" />
  <path fill="#231F20"
    d="m70.9 107.8-.3-.1a.4.4 0 0 1 0-.5L98 88a.4.4 0 0 1 .5 0 .4.4 0 0 1 0 .6l-27.3 19-.2.1ZM189.2 161.8l33-20.2-28 11.6-5 8.6Z" />
  <path fill="#231F20" fill-rule="evenodd"
    d="m189 162 .2.2.2-.1 33-20.2a.4.4 0 0 0-.3-.7l-28 11.7-.2.1-5 8.6v.5Zm1.4-1.4 4.1-7 23.2-9.7-27.3 16.7Z"
    clip-rule="evenodd" />
  <path fill="#fff" d="m194.3 153.2 10.8 5.6 17.1-17.2-28 11.6Z" />
  <path fill="#231F20" fill-rule="evenodd"
    d="m204.9 159 .2.1h.2l17.2-17.2v-.5c0-.1-.2-.2-.4-.1l-28 11.6-.2.3c0 .2 0 .3.2.4L205 159Zm0-.7-9.8-5 25.6-10.7-15.7 15.7Z"
    clip-rule="evenodd" />
  <path fill="#fff" d="m222.2 141.6-35.5 8.5-8-4.6 43.5-3.9Z" />
  <path fill="#231F20" fill-rule="evenodd"
    d="M186.5 150.4h.2l35.6-8.4c.2 0 .3-.3.3-.4 0-.2-.2-.4-.4-.3l-43.6 3.8a.4.4 0 0 0-.2.7l8.1 4.6Zm.2-.7-7-4 37.7-3.3-30.7 7.3Z"
    clip-rule="evenodd" />
  <path fill="#fff" d="m186.7 150 2.5 11.8 5-8.6 28-11.6-35.5 8.5Z" />
  <path fill="#231F20" fill-rule="evenodd"
    d="m189.2 162.2.4-.2 5-8.5 27.8-11.6a.4.4 0 1 0-.2-.6l-35.6 8.4a.4.4 0 0 0-.2.5l2.5 11.7.3.3Zm.2-1.4-2.3-10.5L218 143 194 153h-.1l-4.6 7.8Z"
    clip-rule="evenodd" />
  <path fill="#D1D3D4" d="M182 163.4a.4.4 0 0 1-.3-.7l1.4-.8c.1-.2.4-.1.5 0 .1.2 0 .5-.1.6l-1.3.9h-.3Z" />
  <path fill="#D1D3D4" fill-rule="evenodd"
    d="m22.8 139.8.3.2.3-.1a32.4 32.4 0 0 1 2.4-2.5.4.4 0 0 0-.4-.4l-.3.1-2.3 2.3s-.1.2 0 .4Zm-3.6 5h-.3a.4.4 0 0 1 0-.6l1.8-2.5a.4.4 0 0 1 .6.5 36.8 36.8 0 0 0-2.1 2.7Zm-3.4 5.5h.2s.2 0 .3-.2c.4-1 1-1.8 1.5-2.7 0-.2 0-.4-.2-.6h-.3s-.2 0-.2.2a41.6 41.6 0 0 0-1.5 3c0 .2 0 .2.2.3Zm-2.2 5.8h-.1a.4.4 0 0 1-.3-.5l1.1-3a.4.4 0 0 1 .7.3l-1 3-.4.2Zm-1.4 6.2c.3 0 .4-.2.4-.4a34.7 34.7 0 0 1 .5-3.4l-.2-.1c-.2 0-.4 0-.5.3l-.5 3.1c0 .2 0 .4.3.5Zm164.3 4.3a.4.4 0 0 1-.2-.7 270.2 270.2 0 0 0 3-1.6.4.4 0 0 1 .1.7 90 90 0 0 1-2.9 1.6Zm-165 1.6c0 .2.3.3.5.3l.3-.1v-3.7l-.4-.1a.4.4 0 0 0-.4.4v1.3a24.7 24.7 0 0 0 0 1.9Zm159.5 1.5c-.1 0-.3 0-.3-.2-.1-.2 0-.5.1-.6l2.5-1.3.3-.2a.4.4 0 1 1 .4.7 218.7 218.7 0 0 1-3 1.6Zm-6 2.7.4.2h.2l2.8-1.5a.4.4 0 0 0-.4-.7l-2.8 1.4c-.2.1-.2.4-.1.6Zm-152 2.3a.4.4 0 0 1-.4-.3c-.2-1-.5-2-.6-3.1a.4.4 0 0 1 .7-.1 27.5 27.5 0 0 0 .7 3.3l-.3.2Zm146.4.4c0 .2.2.2.4.2h.1l2.9-1.4a.4.4 0 1 0-.4-.7 164.4 164.4 0 0 1-3 1.6v.3ZM154 178c-.1 0-.3-.1-.3-.3a.4.4 0 0 1 .2-.5l.6-.3 2.2-1a.4.4 0 1 1 .4.7 176 176 0 0 1-3 1.4Zm-138.6 2.5c-.1 0-.3 0-.3-.2-.6-1-1-1.9-1.4-2.9a.4.4 0 0 1 .4-.5l.3.2c.4 1 .8 2 1.4 2.8 0 .2 0 .5-.2.6h-.2Zm126.6 2.2.4.1h.2l2.9-1.2c.2 0 .3-.3.2-.5 0-.2-.3-.3-.5-.2l-3 1.1a.4.4 0 0 0-.2.7Zm-123.3 2.8.3.1h.3c.2-.2.2-.5 0-.6l-1.9-2.5a.4.4 0 0 0-.7 0v.5l2 2.5Zm111.9 1.6a.4.4 0 0 1-.1-.8l3-1c.1 0 .4 0 .4.3v.3l-.2.1-3 1-.1.1Zm-107 2.7h-.2a32.5 32.5 0 0 1-2.5-2.3v-.3a.4.4 0 0 1 .6 0 31 31 0 0 0 2.4 2c.2 0 .3.3.1.5 0 .1-.2.2-.3.1Zm94.6.8c0 .1.2.3.4.3a178 178 0 0 0 3.3-1.1v-.3c0-.2-.2-.3-.4-.3l-3 .9c-.2 0-.4.3-.3.5ZM28.8 193h.2a.4.4 0 0 0 .2-.7 40 40 0 0 1-3-1.6l-.3.2a.4.4 0 0 0 .2.5c.8.6 1.8 1.1 2.7 1.6Zm77.5.9a.4.4 0 1 1 0-.8l3-.7c.2 0 .4 0 .5.3a.4.4 0 0 1-.3.5l-3 .7h-.2Zm-71.5 1.6h-.1a52.7 52.7 0 0 1-3.2-1.3.4.4 0 0 1 .5-.5l3 1a.4.4 0 1 1-.2.9Zm58.8.6c0 .1.2.3.4.3h.1l3.1-.6a.4.4 0 0 0 .2-.7H97l-3.1.5c-.2 0-.4.2-.4.5ZM41 197.4h-.1l-3-.8a.4.4 0 0 1-.4-.5c.1-.2.3-.3.5-.3a74.2 74.2 0 0 0 3.3 1v.3c0 .2-.2.3-.4.3Zm46.5-.3c0 .2.2.4.4.4l3.2-.5a.4.4 0 0 0 .3-.5.4.4 0 0 0-.4-.3l-3.1.5-.3.1v.3Zm-5.8 1.1-.4-.1a.4.4 0 0 1 .3-.6l3.2-.4a.4.4 0 0 1 0 .8l-3 .3h-.1Zm-34.6.3a.4.4 0 0 0 .3-.6l-.2-.2a69.2 69.2 0 0 1-3.5-.3.4.4 0 0 0 .2.6l3.2.5Zm28.3.3a.4.4 0 1 1 0-.7l3.2-.3c.2 0 .4.1.4.3a.4.4 0 0 1-.4.5l-3.1.3h-.1Zm-25.1.1 3.1.3a.4.4 0 1 0 0-.8 108.3 108.3 0 0 1-3.4-.2l-.1.3c0 .2.1.4.4.4Zm18.8.4a.4.4 0 0 1-.4-.4.4.4 0 0 1 .4-.4 141.2 141.2 0 0 0 3.4-.1l.2.3a.4.4 0 0 1-.4.4l-3.1.2Zm-12.2.1h2.8a.4.4 0 0 0 .4-.3l-.1-.3-.3-.1a129.8 129.8 0 0 1-3.4 0l-.2.3c0 .2.2.4.4.4h.4Zm5.5-.3c0 .2.2.4.4.4h1.9l1.3-.1a.4.4 0 0 0 .4-.4c0-.2-.2-.4-.5-.4H62.7c-.2 0-.4.3-.4.5Zm37.5-4.1c0 .2.2.3.4.3l3.1-.6a.4.4 0 0 0 .3-.5.4.4 0 0 0-.4-.3l-3.1.6a.4.4 0 0 0-.3.5Zm12.3-2.8c0 .2.2.3.4.3a137.3 137.3 0 0 0 3.4-1 .4.4 0 0 0-.5-.6l-3 .8c-.2 0-.4.2-.3.5Zm12.1-3.4c0 .2.2.3.4.3h.1l3-1c.2 0 .3-.3.3-.5l-.2-.2h-.3l-.8.2-2.2.7a.4.4 0 0 0-.3.5Zm12.3-3.8a.4.4 0 0 1-.3-.2c-.1-.2 0-.4.2-.5l2-.8 1-.3a.4.4 0 0 1 .2.7 198.3 198.3 0 0 1-3 1.1Zm11.4-4.8c0 .2.2.3.4.3h.1l3-1.3a.4.4 0 1 0-.4-.7l-2.1.9-.8.3c-.2 0-.3.3-.2.5Z"
    clip-rule="evenodd" />
  <path fill="#D1D3D4"
    d="M27.8 135.8s-.2 0-.3-.2a.4.4 0 0 1 .1-.5 75.7 75.7 0 0 1 1.7-1 .4.4 0 0 1 0 .7 37.6 37.6 0 0 0-1.5 1ZM204.5 88.8c-.1 0-.2 0-.3-.2a.4.4 0 0 1 0-.5l1-1.2a.4.4 0 1 1 .6.6l-1 1.1-.3.2Z" />
  <path fill="#D1D3D4" fill-rule="evenodd"
    d="M205.3 17.2c.3 0 .4-.1.5-.3 0-.2-.2-.4-.4-.4a28.4 28.4 0 0 0-3.5-.3v.6h.3l3.1.4Zm6.1 1.9h-.1l-3-1.1a.4.4 0 1 1 .3-.8 24 24 0 0 1 3.2 1.4v.3l-.4.2Zm5 3.3.3.1.3-.1c.2-.2.2-.4 0-.6l-2.6-2a.4.4 0 1 0-.4.7c.9.6 1.7 1.2 2.5 2Zm4.4 5c-.1 0-.3 0-.4-.2a22 22 0 0 0-1.8-2.5.4.4 0 0 1 0-.6.4.4 0 0 1 .6 0 23.3 23.3 0 0 1 2 3 .4.4 0 0 1-.4.3Zm2.2 5.5.4.2h.1c.2 0 .4-.3.3-.5l-1.2-3a.4.4 0 0 0-.7.4l1.1 2.9Zm1.8 6.4a.4.4 0 0 1-.4-.3l-.5-3.1a.4.4 0 0 1 .8-.2l.5 3.2c0 .2 0 .4-.3.4Zm.2 6c0 .1.1.3.4.3.2 0 .3-.2.3-.4a59.9 59.9 0 0 0-.2-3.5h-.3a.4.4 0 0 0-.4.4l.2 3.1Zm.2 6.6a.4.4 0 0 1-.4-.4v-1l.1-1.3a34.7 34.7 0 0 0 .2-1.1l.3-.1c.2 0 .3.2.3.4V50a44.1 44.1 0 0 0-.1 1.6c0 .2-.2.3-.4.3Zm-1.5 6.2h.2c.1 0 .3 0 .3-.2l.8-3.1c0-.2 0-.4-.3-.5-.2 0-.4.1-.4.3l-.8 3c0 .3 0 .5.2.5Zm-2.1 6h-.2a.4.4 0 0 1-.2-.6 51.1 51.1 0 0 0 1.4-3h.3c.2 0 .3.2.3.4a50.3 50.3 0 0 1-1.6 3.2Zm-3.2 5.5.2.1c.2 0 .3 0 .4-.2l1.5-2.8a.4.4 0 1 0-.7-.4 66.1 66.1 0 0 1-1.5 3.1l.1.2Zm-3.1 5.5a.4.4 0 0 1-.4-.6l1.8-2.7c0-.2.3-.2.5-.1s.2.4.1.5a92.4 92.4 0 0 1-2 2.9Zm-4 5 .3.2.3-.2 1.9-2.6c.1-.1 0-.4-.1-.5a.4.4 0 0 0-.6 0l-1.8 2.6c-.2.2-.1.4 0 .6Zm-4 5 .3.1.4-.1a99 99 0 0 0 2-2.8v-.2a.4.4 0 0 0-.6 0l-1 1.2a115 115 0 0 1-1.2 1.5c0 .1 0 .2.2.3Z"
    clip-rule="evenodd" />
  <path fill="#D1D3D4" d="M197.4 17a.4.4 0 1 1 0-.8l1.6-.1a.4.4 0 1 1 0 .8l-1.5.1Z" />
  <path fill="#fff"
    d="M2 52c-1-1-.8-2.7.3-3.6l22.9-18.7c1-.9 2.7-.7 3.6.4L38 41.4c1 1 .8 2.7-.3 3.6L14.8 63.7c-1 .9-2.7.7-3.6-.4L2 52Z" />
  <path fill="#D1D3D4" fill-rule="evenodd"
    d="M12.9 64.9h.2c.6 0 1.1-.2 1.5-.6L38.4 45a2.4 2.4 0 0 0 .3-3.3l-10-12.2a2.4 2.4 0 0 0-3.3-.3L1.6 48.4a2.4 2.4 0 0 0-.3 3.4l10 12.2c.4.5 1 .8 1.6.9Zm13-35.2c.3-.3.6-.4 1-.4.5 0 1 .2 1.2.6l10 12.2a1.6 1.6 0 0 1-.2 2.2L14.2 63.7c-.4.3-.8.4-1.2.4-.4 0-.8-.3-1.1-.6l-10-12.2c-.2-.3-.4-.7-.3-1.2 0-.4.2-.8.5-1L26 29.7Z"
    clip-rule="evenodd" />
  <path fill="#D1D3D4"
    d="M1.2 50.4a.4.4 0 0 1-.4-.4.4.4 0 0 1 .3-.4L21 47.8l5.7-19a.4.4 0 0 1 .4-.3c.3.1.4.3.3.5l-5.7 19.3c0 .2-.2.3-.3.3l-20 1.8h-.1Z" />
  <path fill="#D1D3D4"
    d="M22 45.8a.4.4 0 1 1 0-.8l16.8-2c.2 0 .4.2.4.4a.4.4 0 0 1-.3.5L22 45.8ZM13.1 64.9H13a.4.4 0 0 1-.3-.5l5.2-16a.4.4 0 0 1 .8.2l-5.2 16c0 .2-.2.3-.4.3Z" />
  <path fill="#fff"
    d="M214.9 105.9a2 2 0 0 1 2.7-1.1l21.8 9.4a2 2 0 0 1 1 2.8l-4.6 10.7a2 2 0 0 1-2.7 1l-21.8-9.3a2 2 0 0 1-1-2.8l4.6-10.7Z" />
  <path fill="#D1D3D4" fill-rule="evenodd"
    d="m233.4 129.3.8.2c.2 0 .5 0 .7-.2a2 2 0 0 0 1.1-1l5-11.6c.2-.5.2-1 0-1.6a2 2 0 0 0-1-1l-22.7-9.8a2 2 0 0 0-2.6 1l-5 11.6a2 2 0 0 0 1 2.6l22.7 9.8Zm-18-23.7c.3-.4.7-.7 1.2-.7h.5l22.6 9.9c.3.1.5.3.6.6v1l-5 11.6c-.2.3-.4.5-.7.6h-1l-22.5-9.8c-.7-.2-1-1-.7-1.6l5-11.6Z"
    clip-rule="evenodd" />
  <path fill="#D1D3D4"
    d="M224.7 118.6s-.2 0-.3-.2l-8.7-13.6a.4.4 0 1 1 .7-.5l8.5 13.5 15.6-3a.4.4 0 0 1 .5.3c0 .2 0 .4-.3.5l-15.9 3Z" />
  <path fill="#D1D3D4"
    d="M234.6 129.4c-.1 0-.2 0-.3-.2l-7.6-11.2c0-.1 0-.4.2-.5h.2l.3.1 7.5 11.2c.2.2.1.5 0 .6h-.3ZM210.1 118.8a.4.4 0 0 1-.4-.3v-.3l.3-.2 13.4-2.1a.4.4 0 1 1 .2.7l-13.4 2.2Z" />
  <path fill="#fff"
    d="M63.4 13.7c.2-.8 1-1.2 1.9-1l16.4 5.5c.8.2 1.3 1.1 1 1.9L80 28.2c-.3.8-1.1 1.3-2 1l-16.4-5.5a1.5 1.5 0 0 1-1-1.9l2.8-8.1Z" />
  <path fill="#D1D3D4" fill-rule="evenodd"
    d="M78.3 29.7a1.6 1.6 0 0 0 2-1l2.9-8.8c.2-.8-.2-1.7-1-2L65 12.2c-.9-.2-1.7.2-2 1L60 22a1.6 1.6 0 0 0 1 2l17.2 5.7Zm.8-.8h-.6l-17-5.6a.8.8 0 0 1-.5-.4v-.6l2.9-8.8a.8.8 0 0 1 1-.5l17 5.7c.3 0 .4.2.5.4v.6l-2.9 8.8c0 .2-.2.3-.4.4Z"
    clip-rule="evenodd" />
  <path fill="#D1D3D4"
    d="m71.3 22.4-.3-.1-7.2-9.4a.4.4 0 0 1 .6-.5l7 9.2 11.2-3.2a.4.4 0 0 1 .5.3c0 .2-.1.4-.3.5l-11.4 3.3Z" />
  <path fill="#D1D3D4"
    d="M79.2 29.7c-.1 0-.2 0-.3-.2l-6.2-7.7a.4.4 0 1 1 .6-.5l6.2 7.7a.4.4 0 0 1-.3.7ZM60.6 23.5a.4.4 0 1 1 0-.8l9.5-2.4a.4.4 0 0 1 .5.6l-.3.1-9.5 2.5h-.2Z" />
</svg>